<?xml version="1.0" encoding="UTF-8"?>
<svg version="1.1" xmlns="http://www.w3.org/2000/svg" width="626" height="626">
<path d="M0 0 C206.58 0 413.16 0 626 0 C626 206.58 626 413.16 626 626 C419.42 626 212.84 626 0 626 C0 419.42 0 212.84 0 0 Z " fill="#FEFEFE" transform="translate(0,0)"/>
<path d="M0 0 C5.19359835 4.57069014 8.86991246 9.87024524 12 16 C11.55966813 10.80408388 11.11696661 7.33664919 8 3 C11.35620271 4.38877354 13.07298728 5.91677965 15 9 C15 9.66 15 10.32 15 11 C15.99 11 16.98 11 18 11 C21.2927764 17.58555279 19.70823062 29.4224236 18.31640625 36.453125 C17.39615753 39.12604658 16.34643494 41.51620387 15 44 C14.34644531 45.21042969 14.34644531 45.21042969 13.6796875 46.4453125 C10.45559134 51.78357008 6.6095973 56.12601277 1 59 C-0.92799685 59.18963903 -2.85783476 59.37714602 -4.79296875 59.46875 C-8.92909871 60.46434942 -12.01173139 63.38762231 -15.2890625 65.9921875 C-18.07228159 68.0535342 -20.86664845 69.53899444 -24 71 C-17.76559832 69.41039668 -11.83712355 67.72399099 -6 65 C-6 65.66 -6 66.32 -6 67 C-9.72790383 68.79430286 -13.45753949 70.58497696 -17.1875 72.375 C-18.24259766 72.88289063 -19.29769531 73.39078125 -20.38476562 73.9140625 C-21.40634766 74.40390625 -22.42792969 74.89375 -23.48046875 75.3984375 C-24.41785889 75.84880371 -25.35524902 76.29916992 -26.32104492 76.76318359 C-28.85207365 77.93170556 -31.40202147 78.99047622 -34 80 C-33.38125 80.845625 -32.7625 81.69125 -32.125 82.5625 C-30.35374128 85.13446472 -29.94331277 86.32311722 -29.375 89.5625 C-27.77724556 93.55688611 -27.30438194 93.61771449 -23.5625 95.25 C-18.94508823 97.27600721 -15.50179544 99.91735356 -11.9375 103.4375 C-11.01839844 104.34371094 -10.09929687 105.24992187 -9.15234375 106.18359375 C-6.80672976 109.2528999 -6.27481857 111.19179981 -6 115 C-6.66 115 -7.32 115 -8 115 C-7.67 116.98 -7.34 118.96 -7 121 C-3.7 121.66 -0.4 122.32 3 123 C3 123.33 3 123.66 3 124 C-24.06536756 123.14214366 -24.06536756 123.14214366 -32.8125 115.4375 C-33.88133745 114.29757597 -34.94420746 113.15201667 -36 112 C-37.31432899 110.97515022 -38.64337999 109.9681735 -40 109 C-38.02 110.98 -36.04 112.96 -34 115 C-34.33 115.66 -34.66 116.32 -35 117 C-45.09760903 111.02974067 -54.92176771 105.19542177 -59.07421875 93.80078125 C-59.93961697 91.63723029 -59.93961697 91.63723029 -63.0625 90.75 C-64.5165625 90.37875 -64.5165625 90.37875 -66 90 C-66.433125 89.195625 -66.86625 88.39125 -67.3125 87.5625 C-69.88671215 83.65351118 -73.61547859 83.13059986 -78 82 C-76.68 81.01 -75.36 80.02 -74 79 C-75.04194623 77.77005336 -75.04194623 77.77005336 -77.28125 77.5703125 C-80.24645237 77.7495162 -80.24645237 77.7495162 -82.28125 80.4921875 C-83.04104991 81.60626953 -83.77962699 82.73502746 -84.5 83.875 C-84.8916333 84.47505859 -85.2832666 85.07511719 -85.68676758 85.69335938 C-86.81511993 87.44852211 -87.91165388 89.21983291 -89 91 C-89.48855469 91.77601563 -89.97710937 92.55203125 -90.48046875 93.3515625 C-96.07512954 103.30969659 -98.48930728 115.46445445 -101.05078125 126.5234375 C-102 130 -102 130 -104 132 C-103.67 129.36 -103.34 126.72 -103 124 C-105.68447346 126.31338448 -108.34490024 128.65297288 -111 131 C-111.48710449 131.42845215 -111.97420898 131.8569043 -112.47607422 132.29833984 C-118.31995822 137.45795414 -123.74394974 142.39578407 -128 149 C-128.33 149 -128.66 149 -129 149 C-129.05416741 146.27056463 -129.09375225 143.54221436 -129.125 140.8125 C-129.14175781 140.04357422 -129.15851563 139.27464844 -129.17578125 138.48242188 C-129.21266851 134.1850566 -128.9958504 130.92098169 -127 127 C-127.66 127 -128.32 127 -129 127 C-129.33 127.99 -129.66 128.98 -130 130 C-130.99 130 -131.98 130 -133 130 C-134.45887389 127.08225221 -134.36823233 125.25271895 -134 122 C-132.7749186 120.34448459 -131.54442326 118.69240354 -130.27416992 117.07128906 C-128.76529374 114.61846179 -128.34738516 112.55837256 -127.80078125 109.734375 C-126.0821912 102.45609387 -122.92028832 96.09776405 -119.56369019 89.47573853 C-117.73465148 85.86347236 -115.94591202 82.23147239 -114.16015625 78.59765625 C-113.80240616 77.87041855 -113.44465607 77.14318085 -113.07606506 76.39390564 C-109.77560808 69.63521391 -106.81010997 62.76458652 -103.9375 55.8125 C-93.71722641 31.14481761 -93.71722641 31.14481761 -89 28 C-90.875 33.875 -90.875 33.875 -92 35 C-89.66928121 35.41870553 -89.66928121 35.41870553 -87 35 C-86.41863281 34.2471875 -85.83726562 33.494375 -85.23828125 32.71875 C-82.60653504 29.52207398 -80.09500565 28.09739203 -76.4375 26.1875 C-75.30183594 25.58292969 -74.16617188 24.97835937 -72.99609375 24.35546875 C-70 23 -70 23 -67 23 C-67 24.98 -67 26.96 -67 29 C-63.00484052 27.66828017 -61.64788873 25.19104539 -59 22 C-58.34 22 -57.68 22 -57 22 C-54.67465078 25.81357272 -53.58639021 28.46199547 -54.35180664 32.92407227 C-55.7497909 37.40130773 -58.49494669 41.25964567 -61 45.1875 C-62.10873394 46.94895634 -63.21308884 48.71317859 -64.3125 50.48046875 C-64.80363281 51.25285889 -65.29476562 52.02524902 -65.80078125 52.82104492 C-66.94787527 54.90529046 -67.55066157 56.67566483 -68 59 C-54.53618182 58.27516457 -40.92976834 54.92936079 -30.6875 45.5625 C-26.84122503 41.04596264 -24.11891399 35.91339271 -23.875 29.9375 C-26.56556677 22.91213122 -30.94131285 18.51182155 -37.4609375 14.91015625 C-38.22277344 14.45962891 -38.22277344 14.45962891 -39 14 C-39 13.67 -39 13.34 -39 13 C-31.97047248 13.4535179 -26.4150557 15.12059087 -20 18 C-20 17.01 -20 16.02 -20 15 C-28.75098635 10.68613349 -36.59365578 9.50596248 -46.3125 9.5 C-47.32570313 9.49419922 -48.33890625 9.48839844 -49.3828125 9.48242188 C-55.06847762 9.57556842 -59.84031769 10.26678784 -65.14916992 12.33691406 C-67.50592364 13.18125427 -69.52265648 13.30966794 -72 13 C-72.33 12.67 -72.66 12.34 -73 12 C-84.79616894 10.87004001 -95.97780089 13.44735459 -107.4375 15.875 C-109.24129206 16.24468406 -111.04532788 16.61318083 -112.84960938 16.98046875 C-119.97397585 18.44533472 -127.02690361 19.91739015 -134 22 C-134 21.34 -134 20.68 -134 20 C-132.94683594 19.5875 -131.89367187 19.175 -130.80859375 18.75 C-123.20873171 15.72512196 -115.77962522 12.54900549 -108.5625 8.6875 C-107.93077881 8.35041016 -107.29905762 8.01332031 -106.64819336 7.66601562 C-104.12314327 6.28624491 -102.04555552 5.04555552 -100 3 C-98.0834471 2.42264206 -96.13990313 1.93336686 -94.1875 1.4921875 C-93.02992188 1.22792969 -91.87234375 0.96367187 -90.6796875 0.69140625 C-89.46539062 0.42199219 -88.25109375 0.15257812 -87 -0.125 C-85.78570312 -0.40214844 -84.57140625 -0.67929688 -83.3203125 -0.96484375 C-74.31750308 -3 -74.31750308 -3 -72 -3 C-72 -3.66 -72 -4.32 -72 -5 C-74.31 -4.67 -76.62 -4.34 -79 -4 C-78.67 -4.66 -78.34 -5.32 -78 -6 C-76.28515625 -6.52734375 -76.28515625 -6.52734375 -74.0625 -6.9375 C-69.78535476 -7.79428903 -65.7013399 -8.96909326 -61.5546875 -10.31640625 C-41.83985775 -15.59178118 -17.00209926 -11.0102653 0 0 Z " fill="#020202" transform="translate(301,253)"/>
<path d="M0 0 C0 3 0 3 -0.17578125 5.05859375 C-0.47932812 10.34030925 0.21314791 13.99307047 2.4375 18.8125 C5.36277649 25.16712606 5.87694982 31.0644443 6 38 C6.66 38 7.32 38 8 38 C8.99 35.03 9.98 32.06 11 29 C15.36269275 37.72538549 16.8412722 46.38633393 13.9140625 55.88671875 C12.50178461 60.01612497 10.95308733 64.09382535 9 68 C8.79976571 72.46958575 8.79976571 72.46958575 9.48803711 76.86035156 C10.13094941 79.54727736 10.21780638 82.09857866 10.31640625 84.859375 C10.35830078 85.97441406 10.40019531 87.08945312 10.44335938 88.23828125 C10.48267578 89.39714844 10.52199219 90.55601562 10.5625 91.75 C10.62727539 93.51150391 10.62727539 93.51150391 10.69335938 95.30859375 C10.79934794 98.20561451 10.90141638 101.10271935 11 104 C12.91453256 103.91941099 12.91453256 103.91941099 15 103 C16.69649714 100.57344736 16.69649714 100.57344736 18.1015625 97.48828125 C18.66915283 96.34415771 19.23674316 95.20003418 19.8215332 94.02124023 C20.11581207 93.41496796 20.41009094 92.80869568 20.71328735 92.18405151 C27.88977258 77.45225873 35.87535356 63.34072534 48 52 C48.66 52 49.32 52 50 52 C49.01 54.97 48.02 57.94 47 61 C49.79101724 59.79307362 51.60464028 58.78299757 53 56.01953125 C53.73045817 54.035354 54.37122316 52.01870458 55 50 C53.68 50.33 52.36 50.66 51 51 C51.0625 49.1875 51.0625 49.1875 52 47 C53.03125 46.62875 54.0625 46.2575 55.125 45.875 C59.84881208 44.15197018 61.69480818 40.52460709 64.2265625 36.375 C67.00647553 32.65212088 70.24257073 31.2975615 74.5 29.625 C78.23950174 27.88880276 80.18598631 25.96211967 83 23 C84.66666667 22 86.33333333 21 88 20 C89.68903497 18.35600596 91.35282453 16.68593254 93 15 C98 10 103 5 108 0 C107.35497977 4.2571335 105.88686447 7.72598719 104.05859375 11.61328125 C103.77146011 12.22769577 103.48432648 12.84211029 103.18849182 13.47514343 C102.27660162 15.42337328 101.35718807 17.367941 100.4375 19.3125 C99.81525374 20.63843666 99.19350361 21.96460626 98.57226562 23.29101562 C97.05390965 26.5300596 95.52878897 29.76586484 94 33 C95.485 33.495 95.485 33.495 97 34 C92.16550298 44.61595737 82.99995755 53.65153953 75.39257812 62.38574219 C73.22735736 64.89563695 71.11367725 67.44661617 69 70 C69.33 69.67 69.66 69.34 70 69 C71.09634766 67.92105469 71.09634766 67.92105469 72.21484375 66.8203125 C73.11332031 65.93085938 74.01179688 65.04140625 74.9375 64.125 C75.83339844 63.24070312 76.72929687 62.35640625 77.65234375 61.4453125 C80.10278305 59.03660081 80.10278305 59.03660081 82 56 C82.66 56.33 83.32 56.66 84 57 C80.42710845 63.19463791 76.54774221 68.7435064 71.625 73.9375 C63.27146046 82.80160513 56.66624209 91.83933591 51.703125 102.96875 C49.16673564 107.48305767 45.73007388 109.69801656 41.25 112.0625 C35.58521333 115.53377905 31.99340687 120.798797 28 126 C26.58604185 127.75218914 25.16950483 129.50230138 23.75 131.25 C21.51007219 134.04880088 19.35476581 136.86680196 17.3125 139.8125 C15 143 15 143 12.734375 145.25390625 C9.03438453 148.96975382 5.72638316 152.97655356 2.37304688 157.00390625 C-0.2123398 160.06684842 -2.61701956 162.77713036 -6 165 C-5.55036936 160.32384131 -4.98662391 157.60883722 -2 154 C-1.29485154 151.85266073 -1.29485154 151.85266073 -1 150 C-4.4411291 149.69275633 -5.92298324 149.58708414 -9 151 C-12.26064628 155.02302761 -14.61571558 159.42747233 -17 164 C-17.43570312 164.81339844 -17.87140625 165.62679687 -18.3203125 166.46484375 C-20.09584789 169.89096945 -21.6453453 173.38758748 -23 177 C-23.33 177 -23.66 177 -24 177 C-24.04974332 172.01954576 -24.08588098 167.03923879 -24.10986328 162.05859375 C-24.11986984 160.36716184 -24.13347931 158.67574701 -24.15087891 156.984375 C-24.17536403 154.54162358 -24.18653672 152.09910251 -24.1953125 149.65625 C-24.21079636 148.53700134 -24.21079636 148.53700134 -24.22659302 147.3951416 C-24.22766715 142.27455432 -23.3484469 137.93879423 -22 133 C-21.82987987 130.16576508 -21.82987987 130.16576508 -22 128 C-23.65 127.67 -25.3 127.34 -27 127 C-26.88581333 124.41577541 -26.75907638 121.83320487 -26.625 119.25 C-26.57859375 118.15558594 -26.57859375 118.15558594 -26.53125 117.0390625 C-26.31841616 113.13710875 -25.80259043 110.41941773 -24 107 C-23.60138459 104.57232145 -23.27518763 102.13224725 -23 99.6875 C-22.55620081 95.76859463 -22.0473253 92.16404928 -20.953125 88.37109375 C-20.05497746 85.19444897 -19.73108233 82.65721638 -19.75 79.375 C-19.74484375 78.47523438 -19.7396875 77.57546875 -19.734375 76.6484375 C-19.86029971 74.00049263 -19.86029971 74.00049263 -20.9921875 71.76953125 C-22.4921753 67.64747176 -22.38184126 63.66716509 -22.375 59.3125 C-22.37556396 58.42071045 -22.37612793 57.5289209 -22.37670898 56.61010742 C-22.26946313 50.1946953 -21.82619106 42.82619106 -17 38 C-16.8684967 36.58560896 -16.76967538 35.16811225 -16.6875 33.75 C-16.26226012 29.35120711 -15.01137886 27.29369562 -12 24 C-11.22166466 21.81785432 -11.22166466 21.81785432 -11 20 C-10.01 20 -9.02 20 -8 20 C-7.896875 19.01 -7.79375 18.02 -7.6875 17 C-6.72041556 10.36472622 -4.54085351 5.01059698 0 0 Z " fill="#020202" transform="translate(351,223)"/>
<path d="M0 0 C-2.54293852 12.98237032 -7.95194613 21.49265405 -17 31 C-17.66 30.34 -18.32 29.68 -19 29 C-19 27.68 -19 26.36 -19 25 C-19.66 24.67 -20.32 24.34 -21 24 C-4.4351585 0 -4.4351585 0 0 0 Z " fill="#0E0E0E" transform="translate(401,275)"/>
<path d="M0 0 C0.66 0 1.32 0 2 0 C8.24286662 23.27140013 8.24286662 23.27140013 5 33 C4.01 32.67 3.02 32.34 2 32 C0.24554191 21.23827939 -0.23990235 10.88890097 0 0 Z " fill="#DDDDDD" transform="translate(334,291)"/>
<path d="M0 0 C0.66 0 1.32 0 2 0 C2 2.31 2 4.62 2 7 C1.34 7 0.68 7 0 7 C-1.26003215 16.02534656 -1.02743458 24.95203584 -0.87304688 34.046875 C-0.86208984 35.2534375 -0.85113281 36.46 -0.83984375 37.703125 C-0.81458618 39.33749512 -0.81458618 39.33749512 -0.78881836 41.00488281 C-1.00490338 44.06954301 -1.70046659 46.23492621 -3 49 C-3.33 49 -3.66 49 -4 49 C-4.07491408 44.0744956 -4.12895771 39.14933268 -4.16479492 34.22338867 C-4.17975584 32.55243136 -4.20013204 30.88151245 -4.22631836 29.21069336 C-4.53380046 9.06760093 -4.53380046 9.06760093 0 0 Z " fill="#111111" transform="translate(331,351)"/>
<path d="M0 0 C1 1 2 2 3 3 C4.69141656 2.91036938 6.37959602 2.75422324 8.0625 2.5625 C8.98160156 2.46066406 9.90070313 2.35882813 10.84765625 2.25390625 C11.91306641 2.12822266 11.91306641 2.12822266 13 2 C13 2.66 13 3.32 13 4 C11.73724243 4.25692627 11.73724243 4.25692627 10.44897461 4.51904297 C7.29699439 5.16171974 4.14553019 5.80685681 0.99438477 6.45361328 C-0.36414033 6.73192952 -1.72286124 7.00929181 -3.08178711 7.28564453 C-5.04593499 7.68525449 -7.00930303 8.08869135 -8.97265625 8.4921875 C-10.15093994 8.73308105 -11.32922363 8.97397461 -12.54321289 9.22216797 C-16.08266019 10.01859986 -19.52237332 10.97088658 -23 12 C-23 11.34 -23 10.68 -23 10 C-21.26363281 9.29423828 -21.26363281 9.29423828 -19.4921875 8.57421875 C-17.95307496 7.94543497 -16.41401525 7.31652186 -14.875 6.6875 C-14.11445313 6.37876953 -13.35390625 6.07003906 -12.5703125 5.75195312 C-8.2845912 3.99702414 -4.1144763 2.1361099 0 0 Z " fill="#1A1A1A" transform="translate(190,263)"/>
<path d="M0 0 C1.17466936 3.48892181 1.01575085 3.96289004 -0.546875 7.64453125 C-1.26924267 9.04013497 -2.00412767 10.42931553 -2.75 11.8125 C-3.47589379 13.19299444 -4.19987109 14.57449841 -4.921875 15.95703125 C-5.27314453 16.62686035 -5.62441406 17.29668945 -5.98632812 17.98681641 C-7.47092454 20.93527066 -8.73992614 23.94950473 -10 27 C-10.66 26.67 -11.32 26.34 -12 26 C-10.70022952 21.1008651 -9.07626313 16.62440425 -7 12 C-7.99 12 -8.98 12 -10 12 C-9.61328125 11.55269531 -9.2265625 11.10539063 -8.828125 10.64453125 C-5.81609925 7.1478974 -2.85678969 3.62592537 0 0 Z " fill="#131313" transform="translate(458,223)"/>
<path d="M0 0 C5.54381177 -0.8753387 9.0161286 1.27205587 13.53515625 4.16015625 C19.52860605 8.63387234 23.6790062 14.35801241 27 21 C27 21.66 27 22.32 27 23 C23.25817377 21.75272459 23.10507255 20.77523791 21.3125 17.375 C16.11753581 8.44017216 9.71200883 4.20416685 0 1 C0 0.67 0 0.34 0 0 Z " fill="#171717" transform="translate(286,248)"/>
<path d="M0 0 C0.66 0.33 1.32 0.66 2 1 C-2.15748932 7.87438963 -6.48277933 14.14738597 -12 20 C-12.66 19.34 -13.32 18.68 -14 18 C-13.67 17.34 -13.34 16.68 -13 16 C-13.66 15.67 -14.32 15.34 -15 15 C-14.01 15 -13.02 15 -12 15 C-11.7525 14.42378906 -11.505 13.84757812 -11.25 13.25390625 C-9.81305755 10.6629194 -8.14041667 8.97955193 -6 6.9375 C-3.62557202 4.66346144 -1.83652048 2.75478071 0 0 Z " fill="#0F0F0F" transform="translate(433,279)"/>
<path d="M0 0 C0 1.79170499 -0.00863721 3.58349127 -0.03515625 5.375 C-0.04417969 6.24125 -0.05320312 7.1075 -0.0625 8 C-0.07410156 8.86625 -0.08570313 9.7325 -0.09765625 10.625 C-0.10362625 13.15076351 -0.10362625 13.15076351 1 16 C0.01 16 -0.98 16 -2 16 C-2.33 15.01 -2.66 14.02 -3 13 C-3.99 15.64 -4.98 18.28 -6 21 C-6.66 21 -7.32 21 -8 21 C-7.26820145 12.80385625 -5.65313639 6.23794361 0 0 Z " fill="#1A1A1A" transform="translate(351,223)"/>
<path d="M0 0 C0.33 0.99 0.66 1.98 1 3 C1.61875 2.505 2.2375 2.01 2.875 1.5 C5 0 5 0 7 0 C5.38419835 3.87792397 2.75734641 6.71078788 -0.0625 9.75 C-0.52205078 10.25660156 -0.98160156 10.76320313 -1.45507812 11.28515625 C-2.61242575 12.54617231 -3.80350187 13.77606893 -5 15 C-5.33 15 -5.66 15 -6 15 C-5.25531915 7.25531915 -5.25531915 7.25531915 -2 4 C-1.34 4 -0.68 4 0 4 C0 2.68 0 1.36 0 0 Z " fill="#1A1A1A" transform="translate(351,373)"/>
<path d="M0 0 C2 2 2 2 2.125 5.625 C2.08375 6.73875 2.0425 7.8525 2 9 C2.99 9 3.98 9 5 9 C5.268125 8.401875 5.53625 7.80375 5.8125 7.1875 C6.99917406 5.00152146 8.09599113 3.58667406 10 2 C10.66 2 11.32 2 12 2 C10.58397787 5.14906415 8.86264918 7.49523672 6.5625 10.0625 C5.96566406 10.73410156 5.36882812 11.40570313 4.75390625 12.09765625 C3.21095774 13.77118837 1.60956514 15.39043486 0 17 C0 11.39 0 5.78 0 0 Z " fill="#0E0E0E" transform="translate(172,385)"/>
<path d="M0 0 C0.680625 0.70125 1.36125 1.4025 2.0625 2.125 C6.72802689 6.76409331 10.83766386 10.56749889 17 13 C19.8125 15.625 19.8125 15.625 22 18 C21.67 18.66 21.34 19.32 21 20 C13.44425177 15.53262795 5.74552041 10.74257384 0 4 C0 2.68 0 1.36 0 0 Z " fill="#191919" transform="translate(245,350)"/>
<path d="M0 0 C0.66 0 1.32 0 2 0 C0.00036876 7.99852497 -5.77741338 13.85578045 -11 20 C-11.33 19.34 -11.66 18.68 -12 18 C-10.65378591 15.62327689 -9.26687786 13.38879036 -7.75 11.125 C-7.34136719 10.49980469 -6.93273437 9.87460937 -6.51171875 9.23046875 C-1.92173327 2.24955836 -1.92173327 2.24955836 0 0 Z " fill="#D7D7D7" transform="translate(396,285)"/>
<path d="M0 0 C0 0.33 0 0.66 0 1 C-9.97276765 2.94274694 -19.92515677 4.66193488 -30 6 C-29.67 5.34 -29.34 4.68 -29 4 C-27.28515625 3.47265625 -27.28515625 3.47265625 -25.0625 3.0625 C-21.60236832 2.3836134 -18.39096325 1.47114227 -15.0625 0.3125 C-9.83954874 -1.32735911 -5.33388005 -0.94194052 0 0 Z " fill="#1A1A1A" transform="translate(252,243)"/>
<path d="M0 0 C0.66 0.66 1.32 1.32 2 2 C1.13375 3.5778125 1.13375 3.5778125 0.25 5.1875 C-2.6109535 10.85831854 -4.25565827 16.91336078 -6 23 C-6.66 23 -7.32 23 -8 23 C-7.37567307 14.57158647 -4.70806532 7.06209798 0 0 Z " fill="#171717" transform="translate(209,344)"/>
<path d="M0 0 C0.33 0 0.66 0 1 0 C1.33608711 8.05364285 1.0517291 14.49783264 -2 22 C-2.66 22 -3.32 22 -4 22 C-3.52759949 18.51987918 -3.0459514 15.04110146 -2.5625 11.5625 C-2.36043945 10.07266602 -2.36043945 10.07266602 -2.15429688 8.55273438 C-2.02216797 7.60849609 -1.89003906 6.66425781 -1.75390625 5.69140625 C-1.63345947 4.81685791 -1.5130127 3.94230957 -1.38891602 3.04125977 C-1 1 -1 1 0 0 Z " fill="#191919" transform="translate(365,262)"/>
<path d="M0 0 C1.65 0.33 3.3 0.66 5 1 C4.71915428 5.02545534 4.21634296 6.74482626 1.5625 9.875 C-1 12 -1 12 -3 12 C-2.25749403 7.91621717 -1.17076699 3.98060777 0 0 Z " fill="#DBDBDB" transform="translate(401,272)"/>
<path d="M0 0 C-0.33 0.66 -0.66 1.32 -1 2 C-14.365 0.02 -14.365 0.02 -28 -2 C-28 -2.33 -28 -2.66 -28 -3 C-18.26280717 -4.62286547 -9.33940765 -2.97162971 0 0 Z " fill="#131313" transform="translate(287,246)"/>
<path d="M0 0 C0.33 0.99 0.66 1.98 1 3 C-8.02812581 6.80131613 -14.31932061 9.34683137 -24 7 C-24 6.67 -24 6.34 -24 6 C-23.02160156 5.90203125 -22.04320312 5.8040625 -21.03515625 5.703125 C-13.37509145 4.82941063 -6.83933975 3.81816799 0 0 Z " fill="#1A1A1A" transform="translate(258,306)"/>
<path d="M0 0 C4.68904588 1.42300113 7.51610475 4.15696334 10.8125 7.625 C11.31458984 8.140625 11.81667969 8.65625 12.33398438 9.1875 C13.56296227 10.45159154 14.78246001 11.72488806 16 13 C15.34 13.66 14.68 14.32 14 15 C12.49403892 13.54782324 10.99537896 12.08807139 9.5 10.625 C8.6646875 9.81289063 7.829375 9.00078125 6.96875 8.1640625 C5 6 5 6 5 4 C2.69 3.34 0.38 2.68 -2 2 C-1.34 1.34 -0.68 0.68 0 0 Z " fill="#141414" transform="translate(278,349)"/>
<path d="M0 0 C0.33 0 0.66 0 1 0 C1.67620721 8.32110535 -0.25506495 15.18183678 -3 23 C-3.33 23 -3.66 23 -4 23 C-4.87574812 18.44610979 -5.26431196 16.02544348 -3 12 C-2.61250787 9.67504723 -2.27017161 7.34148732 -2 5 C-1.67 5 -1.34 5 -1 5 C-0.67 3.35 -0.34 1.7 0 0 Z " fill="#181818" transform="translate(330,318)"/>
<path d="M0 0 C2.97 0.99 5.94 1.98 9 3 C9.33 4.65 9.66 6.3 10 8 C8.24890978 7.37806106 6.49916969 6.75232002 4.75 6.125 C3.77546875 5.77695312 2.8009375 5.42890625 1.796875 5.0703125 C-0.56294327 4.16725355 -2.76905116 3.17921582 -5 2 C-3.35 2 -1.7 2 0 2 C0 1.34 0 0.68 0 0 Z " fill="#DCDCDC" transform="translate(272,264)"/>
<path d="M0 0 C2.52588702 2.36292656 3.88820837 3.66462511 5 7 C5.03954234 9.33299825 5.04401732 11.66708189 5 14 C2.00027651 10.21087559 -0.47510809 6.11168168 -3 2 C-2.01 1.34 -1.02 0.68 0 0 Z " fill="#DDDDDD" transform="translate(309,257)"/>
<path d="M0 0 C0.99 0.33 1.98 0.66 3 1 C2.34 1 1.68 1 1 1 C1.33 2.98 1.66 4.96 2 7 C5.3 7.66 8.6 8.32 12 9 C12 9.33 12 9.66 12 10 C9.70800823 9.85936865 7.41640814 9.71234057 5.125 9.5625 C3.84882813 9.48128906 2.57265625 9.40007812 1.2578125 9.31640625 C-2 9 -2 9 -4 8 C-4 7.34 -4 6.68 -4 6 C-3.01 6 -2.02 6 -1 6 C-0.67 4.02 -0.34 2.04 0 0 Z " fill="#3E3E3E" transform="translate(292,367)"/>
<path d="M0 0 C0.33 0.66 0.66 1.32 1 2 C-0.4375 4.625 -0.4375 4.625 -2 7 C1.62885324 7.15149298 1.62885324 7.15149298 5 6 C5.33 6.99 5.66 7.98 6 9 C2.846632 9.70074844 0.27275026 10 -3 10 C-3.66 10.66 -4.32 11.32 -5 12 C-6 9 -6 9 -5.0390625 6.9921875 C-4.57242188 6.29351562 -4.10578125 5.59484375 -3.625 4.875 C-3.16351563 4.17117188 -2.70203125 3.46734375 -2.2265625 2.7421875 C-1 1 -1 1 0 0 Z " fill="#181818" transform="translate(211,281)"/>
<path d="M0 0 C2.4375 0.5 2.4375 0.5 4.4375 3.5 C3.4475 3.83 2.4575 4.16 1.4375 4.5 C2.4275 5.16 3.4175 5.82 4.4375 6.5 C1.1375 6.17 -2.1625 5.84 -5.5625 5.5 C-3.25134409 0.6344086 -3.25134409 0.6344086 0 0 Z " fill="#D6D6D6" transform="translate(223.5625,329.5)"/>
<path d="M0 0 C0.81919922 0.03544922 1.63839844 0.07089844 2.48242188 0.10742188 C8.5680055 0.4430055 8.5680055 0.4430055 10.8125 2.6875 C8.875 3.25 8.875 3.25 6.8125 3.6875 C6.4825 3.3575 6.1525 3.0275 5.8125 2.6875 C2.71448845 2.62705099 -0.36757003 2.66688478 -3.46484375 2.7265625 C-7.18366104 2.77039925 -10.57309511 2.58409656 -14.1875 1.6875 C-14.1875 1.3575 -14.1875 1.0275 -14.1875 0.6875 C-9.41147607 -0.60096082 -4.88115365 -0.28437687 0 0 Z " fill="#131313" transform="translate(222.1875,262.3125)"/>
<path d="M0 0 C4.21631232 0 6.42766575 1.08096041 9.375 3.9375 C12 6.67692308 12 6.67692308 12 9 C12.99 9.33 13.98 9.66 15 10 C13.68 10.33 12.36 10.66 11 11 C10.525625 10.071875 10.05125 9.14375 9.5625 8.1875 C6.80928401 3.95255322 2.69784419 3.14434666 -2 2 C-1.34 1.34 -0.68 0.68 0 0 Z " fill="#1C1C1C" transform="translate(225,333)"/>
<path d="M0 0 C0.33 0.66 0.66 1.32 1 2 C-4.61 4.64 -10.22 7.28 -16 10 C-16.66 9.34 -17.32 8.68 -18 8 C-12 5.33333333 -6 2.66666667 0 0 Z " fill="#303030" transform="translate(294,318)"/>
<path d="M0 0 C1 4 1 4 -0.25 7.1875 C-2 10 -2 10 -5 11 C-5.99 10.34 -6.98 9.68 -8 9 C-5.36 6.03 -2.72 3.06 0 0 Z " fill="#252525" transform="translate(458,223)"/>
<path d="M0 0 C-5.32886161 4.44071801 -8.07911053 5.60709557 -15 5 C-11.55014028 1.85012808 -4.53875449 -2.26937725 0 0 Z " fill="#C9C9C9" transform="translate(273,320)"/>
<path d="M0 0 C0.66 0.66 1.32 1.32 2 2 C1.34 2.66 0.68 3.32 0 4 C-0.44859375 4.44988281 -0.8971875 4.89976562 -1.359375 5.36328125 C-2.59393394 6.59490076 -3.83456089 7.82044238 -5.078125 9.04296875 C-5.79484375 9.75066406 -6.5115625 10.45835937 -7.25 11.1875 C-7.93578125 11.86167969 -8.6215625 12.53585937 -9.328125 13.23046875 C-11.07449111 14.90798995 -11.07449111 14.90798995 -12 17 C-12.66 16.67 -13.32 16.34 -14 16 C-9.33333333 10.66666667 -4.66666667 5.33333333 0 0 Z " fill="#C6C6C6" transform="translate(433,277)"/>
<path d="M0 0 C0.33 1.32 0.66 2.64 1 4 C-0.24196122 5.15454162 -1.49392845 6.29832562 -2.75 7.4375 C-3.79414063 8.39462891 -3.79414063 8.39462891 -4.859375 9.37109375 C-6.98792725 10.99081325 -8.39023405 11.58267256 -11 12 C-9.65709609 7.97128826 -7.48692446 7.32461631 -4 5 C-1.67722584 2.3908613 -1.67722584 2.3908613 0 0 Z " fill="#161616" transform="translate(311,300)"/>
<path d="M0 0 C1.74216797 0.15275391 1.74216797 0.15275391 3.51953125 0.30859375 C4.39996094 0.39238281 5.28039062 0.47617187 6.1875 0.5625 C6.1875 1.2225 6.1875 1.8825 6.1875 2.5625 C4.12507383 2.58967692 2.06254297 2.6089758 0 2.625 C-1.14855469 2.63660156 -2.29710937 2.64820313 -3.48046875 2.66015625 C-6.40550586 2.57442832 -8.97566291 2.24099023 -11.8125 1.5625 C-11.8125 1.2325 -11.8125 0.9025 -11.8125 0.5625 C-7.71524731 -0.47917441 -4.19754776 -0.38159525 0 0 Z " fill="#252525" transform="translate(255.8125,259.4375)"/>
<path d="M0 0 C3.21461619 4.82192428 4.3230694 8.01852399 3.625 13.8125 C3.51414062 14.78832031 3.40328125 15.76414063 3.2890625 16.76953125 C3.19367188 17.50558594 3.09828125 18.24164063 3 19 C2.67 19 2.34 19 2 19 C0.82706111 12.6221448 -0.29530838 6.49678438 0 0 Z " fill="#1D1D1D" transform="translate(352,240)"/>
<path d="M0 0 C0.66 0.33 1.32 0.66 2 1 C1.34 1.66 0.68 2.32 0 3 C0.33 3.66 0.66 4.32 1 5 C-0.43344 5.53190541 -1.87195367 6.05015258 -3.3125 6.5625 C-4.51326172 6.99755859 -4.51326172 6.99755859 -5.73828125 7.44140625 C-8 8 -8 8 -11 7 C-9.21475351 5.80286983 -7.4215972 4.61752721 -5.625 3.4375 C-4.62726563 2.77621094 -3.62953125 2.11492187 -2.6015625 1.43359375 C-1.74304688 0.96050781 -0.88453125 0.48742187 0 0 Z " fill="#D0D0D0" transform="translate(287,317)"/>
<path d="M0 0 C-3.2883245 3.2883245 -6.55779858 3.57556163 -10.9765625 4.08203125 C-13 4 -13 4 -15 2 C-12.87707704 1.47076428 -10.75157949 0.95184623 -8.625 0.4375 C-7.44164062 0.14746094 -6.25828125 -0.14257812 -5.0390625 -0.44140625 C-2 -1 -2 -1 0 0 Z " fill="#191919" transform="translate(229,251)"/>
<path d="M0 0 C0.66 0.33 1.32 0.66 2 1 C1.64950425 4.24208567 1.43778819 5.61527704 -1.0625 7.8125 C-1.701875 8.204375 -2.34125 8.59625 -3 9 C-3.33 8.34 -3.66 7.68 -4 7 C-3.67 6.34 -3.34 5.68 -3 5 C-3.66 4.67 -4.32 4.34 -5 4 C-4.01 4 -3.02 4 -2 4 C-1.34 2.68 -0.68 1.36 0 0 Z " fill="#242424" transform="translate(423,290)"/>
<path d="M0 0 C0.66 0.33 1.32 0.66 2 1 C1.7444669 6.86448454 1.34242429 10.65757571 -3 15 C-3.33 14.34 -3.66 13.68 -4 13 C-3.24743624 11.26583134 -2.49118805 9.53293699 -1.69921875 7.81640625 C-0.8038652 5.49048781 -0.85490827 3.46655935 -1 1 C-0.67 0.67 -0.34 0.34 0 0 Z " fill="#171717" transform="translate(278,280)"/>
<path d="M0 0 C0.99 0.66 1.98 1.32 3 2 C1.60667426 5.36720387 0.0210714 6.9859524 -3 9 C-2.25 2.25 -2.25 2.25 0 0 Z " fill="#121212" transform="translate(348,379)"/>
<path d="M0 0 C2.1875 -0.3125 2.1875 -0.3125 5 0 C8.12862678 2.6816801 10.63274497 5.63600602 13 9 C10 9 10 9 7.625 6.75 C6.75875 5.8425 5.8925 4.935 5 4 C3.35135455 2.64444707 1.68996005 1.30368347 0 0 Z " fill="#1F1F1F" transform="translate(262,266)"/>
<path d="M0 0 C0.33 0.99 0.66 1.98 1 3 C-0.43359375 5.26171875 -0.43359375 5.26171875 -2.4375 7.6875 C-3.09621094 8.49574219 -3.75492187 9.30398438 -4.43359375 10.13671875 C-4.95050781 10.75160156 -5.46742188 11.36648438 -6 12 C-6.66 11.67 -7.32 11.34 -8 11 C-7.21718695 9.66144944 -6.42348123 8.32926356 -5.625 7 C-5.18414062 6.2575 -4.74328125 5.515 -4.2890625 4.75 C-3.86367188 4.1725 -3.43828125 3.595 -3 3 C-2.34 3 -1.68 3 -1 3 C-0.67 2.01 -0.34 1.02 0 0 Z " fill="#111111" transform="translate(442,262)"/>
<path d="M0 0 C3.75511724 1.87755862 4.88767141 2.62027425 7 6 C7 6.66 7 7.32 7 8 C7.99 8.33 8.98 8.66 10 9 C9.01 9.495 9.01 9.495 8 10 C7.01 11.485 7.01 11.485 6 13 C6 11.35 6 9.7 6 8 C5.34 8 4.68 8 4 8 C2.68 5.36 1.36 2.72 0 0 Z " fill="#252525" transform="translate(309,256)"/>
<path d="M0 0 C0.99 0.33 1.98 0.66 3 1 C0.66666667 3.33333333 -1.66666667 5.66666667 -4 8 C-4.99 7.67 -5.98 7.34 -7 7 C-2.25 1.125 -2.25 1.125 0 0 Z " fill="#191919" transform="translate(420,255)"/>
<path d="M0 0 C0.66 0 1.32 0 2 0 C1.50269348 4.97306516 0.44697666 8.63799813 -2 13 C-2.33 13 -2.66 13 -3 13 C-2.45144652 8.428721 -1.58255197 4.32564205 0 0 Z " fill="#1A1A1A" transform="translate(203,294)"/>
<path d="M0 0 C-1.3726781 2.95653744 -2.81688364 5.5649856 -5 8 C-7.1875 8.75 -7.1875 8.75 -9 9 C-7.45665977 5.21180126 -4.44676575 0 0 0 Z " fill="#1C1C1C" transform="translate(401,275)"/>
<path d="M0 0 C0.66 0 1.32 0 2 0 C0.515 5.445 0.515 5.445 -1 11 C-1.66 11 -2.32 11 -3 11 C-2.25 3.375 -2.25 3.375 0 0 Z " fill="#111111" transform="translate(346,233)"/>
<path d="M0 0 C0.33 0 0.66 0 1 0 C1.22384382 1.72722728 1.42839969 3.45696007 1.625 5.1875 C1.74101562 6.15042969 1.85703125 7.11335938 1.9765625 8.10546875 C2.00194942 11.24075323 1.34359283 13.19486535 0 16 C-0.33 16 -0.66 16 -1 16 C-0.67 10.72 -0.34 5.44 0 0 Z " fill="#363636" transform="translate(328,384)"/>
<path d="M0 0 C1.41750563 0.11509661 2.83401169 0.24253658 4.25 0.375 C5.03890625 0.44460938 5.8278125 0.51421875 6.640625 0.5859375 C9.085877 1.01507113 10.84836903 1.78600638 13 3 C7.65998179 4.33500455 4.16044765 3.512545 -1 2 C-0.67 1.34 -0.34 0.68 0 0 Z " fill="#181818" transform="translate(274,370)"/>
<path d="M0 0 C0.99 0.33 1.98 0.66 3 1 C-1.69978858 4.97674419 -1.69978858 4.97674419 -5.40234375 5.04296875 C-7.62710829 4.77937106 -9.80547311 4.44865883 -12 4 C-11.67 3.34 -11.34 2.68 -11 2 C-9.01432292 2.06510417 -7.02864583 2.13020833 -5.04296875 2.1953125 C-2.68640281 2.13254462 -2.68640281 2.13254462 0 0 Z " fill="#191919" transform="translate(269,322)"/>
<path d="M0 0 C0.66 0.66 1.32 1.32 2 2 C-0.64 4.97 -3.28 7.94 -6 11 C-6.33 10.01 -6.66 9.02 -7 8 C-5.56640625 5.95703125 -5.56640625 5.95703125 -3.5625 3.8125 C-2.90378906 3.09707031 -2.24507813 2.38164062 -1.56640625 1.64453125 C-1.04949219 1.10183594 -0.53257812 0.55914062 0 0 Z " fill="#181818" transform="translate(394,293)"/>
<path d="M0 0 C0 0.66 0 1.32 0 2 C-1.57925975 2.39180108 -3.16368794 2.76280736 -4.75 3.125 C-5.63171875 3.33382813 -6.5134375 3.54265625 -7.421875 3.7578125 C-10.32875493 4.03088304 -11.56661348 3.53508028 -14 2 C-4.58997722 -0.29612756 -4.58997722 -0.29612756 0 0 Z " fill="#121212" transform="translate(203,265)"/>
<path d="M0 0 C2.24497221 2.24497221 2.37003419 2.96027349 2.75 6 C2.84796875 6.70125 2.9459375 7.4025 3.046875 8.125 C3 10 3 10 1 12 C-0.80619523 7.53763531 -1.11658501 4.68965706 0 0 Z " fill="#121212" transform="translate(357,290)"/>
<path d="M0 0 C0.33 0.99 0.66 1.98 1 3 C-0.91109241 6.08714928 -2.16989754 7.70353484 -5.625 8.9375 C-6.40875 8.958125 -7.1925 8.97875 -8 9 C-8.66 8.34 -9.32 7.68 -10 7 C-8.906875 6.5875 -7.81375 6.175 -6.6875 5.75 C-3.48984058 4.39714409 -1.79346574 3.05944156 0 0 Z " fill="#1A1A1A" transform="translate(432,247)"/>
<path d="M0 0 C0.33 0.99 0.66 1.98 1 3 C-0.21484375 5.04296875 -0.21484375 5.04296875 -1.9375 7.1875 C-2.50339844 7.90292969 -3.06929688 8.61835938 -3.65234375 9.35546875 C-4.09707031 9.89816406 -4.54179687 10.44085938 -5 11 C-5.66 10.34 -6.32 9.68 -7 9 C-4.69 6.03 -2.38 3.06 0 0 Z " fill="#1C1C1C" transform="translate(386,336)"/>
<path d="M0 0 C0.66 0.33 1.32 0.66 2 1 C-3.86516854 5.88764045 -3.86516854 5.88764045 -7 7 C-8.34353414 6.71050922 -9.67965718 6.38155437 -11 6 C-9.21385682 4.96953278 -7.42089982 3.95086764 -5.625 2.9375 C-4.62726563 2.36902344 -3.62953125 1.80054688 -2.6015625 1.21484375 C-1.74304688 0.81394531 -0.88453125 0.41304688 0 0 Z " fill="#0D0D0D" transform="translate(399,328)"/>
<path d="M0 0 C0.66 0.33 1.32 0.66 2 1 C1.67 3.64 1.34 6.28 1 9 C0.01 9.33 -0.98 9.66 -2 10 C-1.125 2.25 -1.125 2.25 0 0 Z " fill="#202020" transform="translate(331,266)"/>
<path d="M0 0 C1.32 0.66 2.64 1.32 4 2 C0.75490696 4.03977277 -2.40608886 5.66511872 -6 7 C-6.33 6.34 -6.66 5.68 -7 5 C-6.030625 4.360625 -5.06125 3.72125 -4.0625 3.0625 C-1.23963731 1.3034741 -1.23963731 1.3034741 0 0 Z " fill="#181818" transform="translate(201,256)"/>
<path d="M0 0 C1.52408942 2.03211923 2.06871724 3.43917864 1.7578125 5.9765625 C0.4375 11.5625 0.4375 11.5625 -2 14 C-1.85866501 12.22880197 -1.71176792 10.45804713 -1.5625 8.6875 C-1.48128906 7.70136719 -1.40007812 6.71523438 -1.31640625 5.69921875 C-1 3 -1 3 0 0 Z " fill="#2B2B2B" transform="translate(199,371)"/>
<path d="M0 0 C0.33 0 0.66 0 1 0 C0.58525633 5.28798182 -0.35224614 8.11690718 -4 12 C-3.45660208 7.43545749 -2.20536179 4.0271824 0 0 Z " fill="#1D1D1D" transform="translate(371,316)"/>
<path d="M0 0 C0.95465783 2.16967689 1.14401212 3.56328793 0.3984375 5.82421875 C-0.35870385 7.5684743 -1.17609198 9.28627131 -2 11 C-2.66 10.67 -3.32 10.34 -4 10 C-3.52449439 8.51965236 -3.04448784 7.04074979 -2.5625 5.5625 C-2.29566406 4.73878906 -2.02882813 3.91507812 -1.75390625 3.06640625 C-1 1 -1 1 0 0 Z " fill="#141414" transform="translate(404,317)"/>
<path d="M0 0 C1.5625 1.0625 1.5625 1.0625 3 3 C2.6875 6.6875 2.6875 6.6875 2 10 C1.34 9.34 0.68 8.68 0 8 C0 6.68 0 5.36 0 4 C-0.66 3.67 -1.32 3.34 -2 3 C-1.34 2.01 -0.68 1.02 0 0 Z " fill="#1C1C1C" transform="translate(382,296)"/>
<path d="M0 0 C0.66 0.66 1.32 1.32 2 2 C-0.31 4.64 -2.62 7.28 -5 10 C-5.66 9.34 -6.32 8.68 -7 8 C-4.69 5.36 -2.38 2.72 0 0 Z " fill="#1B1B1B" transform="translate(432,275)"/>
<path d="M0 0 C3.48331435 3.01887244 4.79157144 5.56909529 6 10 C3 9 3 9 1.3125 6.6875 C0 4 0 4 0 0 Z " fill="#1C1C1C" transform="translate(307,261)"/>
<path d="M0 0 C0.66 0.66 1.32 1.32 2 2 C0.8553125 2.8971875 0.8553125 2.8971875 -0.3125 3.8125 C-2.3483575 5.46959332 -4.1978279 7.10297674 -6 9 C-6 5.06368636 -4.57142871 3.87394974 -2 1 C-1.34 0.67 -0.68 0.34 0 0 Z " fill="#161616" transform="translate(365,363)"/>
<path d="M0 0 C7.48291572 6.15034169 7.48291572 6.15034169 10 10 C9.01 10.33 8.02 10.66 7 11 C6.38125 9.88625 6.38125 9.88625 5.75 8.75 C4.10733538 5.94915692 4.10733538 5.94915692 1.8125 3.8125 C1.214375 3.214375 0.61625 2.61625 0 2 C0 1.34 0 0.68 0 0 Z " fill="#C4C4C4" transform="translate(260,360)"/>
<path d="M0 0 C1.1875 1.5625 1.1875 1.5625 2 4 C0.625 7.75 0.625 7.75 -1 11 C-1.66 11 -2.32 11 -3 11 C-2.32829194 7.1936543 -1.27253436 3.64793184 0 0 Z " fill="#121212" transform="translate(317,286)"/>
<path d="M0 0 C0.66 0.66 1.32 1.32 2 2 C1.73511082 5.84089304 -0.47324722 8.24354242 -3 11 C-3.66 11 -4.32 11 -5 11 C-5 10.34 -5 9.68 -5 9 C-4.319375 8.38125 -4.319375 8.38125 -3.625 7.75 C-1.46013354 5.41860535 -0.87294123 3.02171964 0 0 Z " fill="#161616" transform="translate(406,273)"/>
<path d="M0 0 C0.33 0.66 0.66 1.32 1 2 C0.22265625 3.7265625 0.22265625 3.7265625 -0.9375 5.625 C-1.618125 6.73875 -2.29875 7.8525 -3 9 C-3.66 9 -4.32 9 -5 9 C-3.90931332 5.22454612 -3.0916909 2.52956528 0 0 Z " fill="#1A1A1A" transform="translate(191,326)"/>
<path d="M0 0 C1.40182371 2.61673759 2.60495559 5.0371669 3 8 C2.34 8.66 1.68 9.32 1 10 C1 9.01 1 8.02 1 7 C0.34 7 -0.32 7 -1 7 C-2 4 -2 4 -1.0625 1.8125 C-0.5365625 0.9153125 -0.5365625 0.9153125 0 0 Z " fill="#161616" transform="translate(362,252)"/>
<path d="M0 0 C0.33 0.99 0.66 1.98 1 3 C-0.8125 6.1875 -0.8125 6.1875 -3 9 C-3.66 9 -4.32 9 -5 9 C-3.7508258 5.54074837 -2.32472205 2.85306797 0 0 Z " fill="#161616" transform="translate(339,374)"/>
<path d="M0 0 C0.66 0 1.32 0 2 0 C0.47291037 3.43595166 -1.59927045 6.11912454 -4 9 C-4.33 8.34 -4.66 7.68 -5 7 C-4.21654285 5.82780457 -3.42297164 4.66236332 -2.625 3.5 C-2.18414062 2.8503125 -1.74328125 2.200625 -1.2890625 1.53125 C-0.65097656 0.77328125 -0.65097656 0.77328125 0 0 Z " fill="#1C1C1C" transform="translate(412,305)"/>
<path d="M0 0 C0.66 0.33 1.32 0.66 2 1 C0.7508258 4.45925163 -0.67527795 7.14693203 -3 10 C-3.33 9.34 -3.66 8.68 -4 8 C-3.22265625 6.0546875 -3.22265625 6.0546875 -2.0625 3.875 C-1.49208984 2.78832031 -1.49208984 2.78832031 -0.91015625 1.6796875 C-0.60980469 1.12539063 -0.30945313 0.57109375 0 0 Z " fill="#111111" transform="translate(379,301)"/>
<path d="M0 0 C3.33523252 1.38009621 5.18607951 2.84950652 7 6 C6.67 6.99 6.34 7.98 6 9 C4.99406757 7.8803014 3.9954151 6.7540588 3 5.625 C2.443125 4.99851562 1.88625 4.37203125 1.3125 3.7265625 C0 2 0 2 0 0 Z " fill="#111111" transform="translate(300,254)"/>
<path d="M0 0 C0 0.66 0 1.32 0 2 C-5.41538462 3.23076923 -5.41538462 3.23076923 -8.375 2.0625 C-8.91125 1.711875 -9.4475 1.36125 -10 1 C-6.78548731 -0.60725635 -3.56387464 -0.05748185 0 0 Z " fill="#C4C4C4" transform="translate(229,248)"/>
<path d="M0 0 C0.66 0.33 1.32 0.66 2 1 C0.02 3.31 -1.96 5.62 -4 8 C-4.33 7.34 -4.66 6.68 -5 6 C-3.35 4.02 -1.7 2.04 0 0 Z " fill="#1C1C1C" transform="translate(242,275)"/>
<path d="M0 0 C0.66 0.33 1.32 0.66 2 1 C1.67 2.98 1.34 4.96 1 7 C0.01 7 -0.98 7 -2 7 C-1.34 4.69 -0.68 2.38 0 0 Z " fill="#2A2A2A" transform="translate(176,354)"/>
<path d="M0 0 C0.99 0.99 1.98 1.98 3 3 C2.01 3 1.02 3 0 3 C0 3.66 0 4.32 0 5 C0.66 5 1.32 5 2 5 C1.67 5.66 1.34 6.32 1 7 C0.34 7 -0.32 7 -1 7 C-1.625 4.625 -1.625 4.625 -2 2 C-1.34 1.34 -0.68 0.68 0 0 Z " fill="#1D1D1D" transform="translate(388,288)"/>
<path d="M0 0 C1.32 0.66 2.64 1.32 4 2 C3.34 2.66 2.68 3.32 2 4 C-1.625 3.625 -1.625 3.625 -5 3 C-5 2.67 -5 2.34 -5 2 C-3.35 2 -1.7 2 0 2 C0 1.34 0 0.68 0 0 Z " fill="#CACACA" transform="translate(272,264)"/>
<path d="M0 0 C1.62463842 -0.05395478 3.24978541 -0.09277195 4.875 -0.125 C5.77992188 -0.14820313 6.68484375 -0.17140625 7.6171875 -0.1953125 C10 0 10 0 12 2 C10.0625 2.5625 10.0625 2.5625 8 3 C7.67 2.67 7.34 2.34 7 2 C4.67182036 1.63239269 2.3381615 1.29758419 0 1 C0 0.67 0 0.34 0 0 Z " fill="#3A3A3A" transform="translate(221,263)"/>
<path d="M0 0 C0 0.99 0 1.98 0 3 C-1.98 3 -3.96 3 -6 3 C-6.33 2.34 -6.66 1.68 -7 1 C-4 0 -4 0 0 0 Z " fill="#212121" transform="translate(212,254)"/>
<path d="M0 0 C0.66 0.33 1.32 0.66 2 1 C2 3.31 2 5.62 2 8 C1.67 7.01 1.34 6.02 1 5 C0.01 5.33 -0.98 5.66 -2 6 C-1.34 4.02 -0.68 2.04 0 0 Z " fill="#212121" transform="translate(347,228)"/>
</svg>
