<?xml version="1.0" encoding="UTF-8"?>
<svg version="1.1" xmlns="http://www.w3.org/2000/svg" width="360" height="360">
<path d="M0 0 C10.43236791 -0.06991871 20.86467886 -0.12302186 31.29723454 -0.15543652 C36.14298419 -0.1710043 40.98857198 -0.19207743 45.83422852 -0.22631836 C50.52214049 -0.2592323 55.20989807 -0.27691958 59.89791679 -0.28463173 C61.67463036 -0.29011837 63.45133676 -0.30082988 65.22798347 -0.31719017 C84.13298466 -0.48414321 103.60938869 1.26610309 118 15 C125.87099213 23.4406034 127.60977209 31.89239919 127.34765625 43.27734375 C126.44175201 52.97764426 122.33821819 61.21626068 115.08203125 67.71875 C110.33733077 71.46311711 105.22212191 75 99 75 C102.93030788 80.33731159 106.69898077 84.99191229 112 89 C112.24234375 88.45601563 112.4846875 87.91203125 112.734375 87.3515625 C114.303308 84.43644625 116.21233252 81.98618316 118.25 79.375 C118.89884155 78.54053345 118.89884155 78.54053345 119.56079102 77.68920898 C120.5177574 76.4591583 121.47625036 75.2302942 122.43603516 74.00244141 C124.0906609 71.88392122 125.73922403 69.76078851 127.38671875 67.63671875 C134.11806666 58.96200318 140.88096869 50.31253773 147.67333984 41.68554688 C150.40866628 38.21026279 153.14014788 34.73195337 155.87133789 31.25341797 C158.18364729 28.30898125 160.49899461 25.36702894 162.8203125 22.4296875 C163.29017578 21.83414063 163.76003906 21.23859375 164.24414062 20.625 C167.99335245 15.87352362 167.99335245 15.87352362 169.47583008 14.07421875 C171.13972368 11.90521046 171.13972368 11.90521046 172.6862793 8.92578125 C177.5878964 0.77426389 177.5878964 0.77426389 181.94348145 -0.62384033 C187.47307226 -1.49580342 193.0016814 -1.09500835 198.5625 -0.75 C200.25566954 -0.68972064 201.94904594 -0.63498274 203.64257812 -0.5859375 C207.76687811 -0.45451404 211.88113737 -0.24806678 216 0 C213.51829963 4.41813211 211.11184493 8.31122044 207.8125 12.1875 C203.87514335 16.90592577 200.15362223 21.73653417 196.48828125 26.66796875 C193.67284594 30.45117429 190.80579608 34.1942998 187.9375 37.9375 C186.81896685 39.39840414 185.70047859 40.85934266 184.58203125 42.3203125 C183.71118896 43.45774902 183.71118896 43.45774902 182.82275391 44.61816406 C173.66347529 56.58681155 164.54667692 68.584489 155.52856445 80.65991211 C150.62743583 87.20495417 145.62797411 93.66925111 140.56591797 100.09057617 C140.02467285 100.77998291 139.48342773 101.46938965 138.92578125 102.1796875 C138.45567627 102.77507324 137.98557129 103.37045898 137.5012207 103.98388672 C135.83568622 106.10649051 135.83568622 106.10649051 134.35717773 109.18237305 C132 112 132 112 128.09277344 112.82397461 C126.51588932 112.88372484 124.93738167 112.90768802 123.359375 112.90234375 C122.09785614 112.92162682 122.09785614 112.92162682 120.81085205 112.94129944 C119.03234949 112.95850856 117.2536358 112.96004459 115.47509766 112.94702148 C112.77003247 112.93756999 110.07493135 113.00774 107.37109375 113.08398438 C94.85717133 113.22214773 94.85717133 113.22214773 90.13183594 110.11254883 C88.10284069 107.84561121 86.54130372 105.61648287 85 103 C83.84757812 101.61748047 83.84757812 101.61748047 82.671875 100.20703125 C81.72054687 99.02173828 81.72054687 99.02173828 80.75 97.8125 C77.23508736 93.47946114 73.64261094 89.22531387 70 85 C64.90017652 79.07897088 59.92262594 73.06947427 55 67 C53.31442253 64.93592067 51.62586409 62.87430288 49.9375 60.8125 C48.625 59.20833333 47.3125 57.60416667 46 56 C46.495 55.01 46.495 55.01 47 54 C48.43666016 53.98598145 48.43666016 53.98598145 49.90234375 53.97167969 C53.48857496 53.93151663 57.07397179 53.86568875 60.65966797 53.79248047 C62.20545657 53.76442213 63.75138461 53.74313294 65.29736328 53.72900391 C77.28973526 53.81570812 77.28973526 53.81570812 88 49 C90.27793953 45.1471248 90.21156075 42.4836778 89.609375 38.125 C88.66318868 34.82547849 86.92803948 33.63425459 84 32 C80.79681982 30.96016016 77.93402405 30.91766026 74.57983398 31.00097656 C73.49447861 31.02299133 72.40912323 31.0450061 71.2908783 31.06768799 C69.53620995 31.10379181 69.53620995 31.10379181 67.74609375 31.140625 C63.9563121 31.1720722 60.16656975 31.19198452 56.37670898 31.21142578 C53.76280136 31.23702215 51.14901072 31.28402431 48.53588867 31.35302734 C25.56435104 31.92575314 25.56435104 31.92575314 19.94360352 27.23022461 C17.0292358 24.12607348 15.0706143 20.70521119 13 17 C11.43021406 14.94225317 9.7617816 13.01857371 8.0625 11.0625 C5.12508551 7.51015014 2.53980557 3.84555705 0 0 Z " fill="#861A1E" transform="translate(72,124)"/>
<path d="M0 0 C1.69316954 0.06027936 3.38654594 0.11501726 5.08007812 0.1640625 C9.20437811 0.29548596 13.31863737 0.50193322 17.4375 0.75 C14.95579963 5.16813211 12.54934493 9.06122044 9.25 12.9375 C5.31264335 17.65592577 1.59112223 22.48653417 -2.07421875 27.41796875 C-4.88965406 31.20117429 -7.75670392 34.9442998 -10.625 38.6875 C-11.74353315 40.14840414 -12.86202141 41.60934266 -13.98046875 43.0703125 C-14.56103027 43.82860352 -15.1415918 44.58689453 -15.73974609 45.36816406 C-24.89902471 57.33681155 -34.01582308 69.334489 -43.03393555 81.40991211 C-47.93506417 87.95495417 -52.93452589 94.41925111 -57.99658203 100.84057617 C-60.40868044 103.91296766 -62.73853708 106.95797969 -64.83203125 110.2578125 C-65.40308594 111.08023438 -65.97414062 111.90265625 -66.5625 112.75 C-68.5625 112.75 -68.5625 112.75 -69.8671875 111.45703125 C-70.38539063 110.83183594 -70.90359375 110.20664063 -71.4375 109.5625 C-74.86050674 105.52902072 -78.40387581 101.628412 -82 97.75 C-82.54446777 97.1619458 -83.08893555 96.5738916 -83.64990234 95.96801758 C-84.95320933 94.56118462 -86.25772519 93.15547172 -87.5625 91.75 C-86.10004224 87.35450195 -83.70380579 84.10681378 -80.8125 80.5625 C-79.81705581 79.31953272 -78.82229797 78.07601554 -77.828125 76.83203125 C-77.29896484 76.17283691 -76.76980469 75.51364258 -76.22460938 74.83447266 C-73.30098403 71.16791667 -70.43518619 67.45650137 -67.5625 63.75 C-62.02893827 56.62598043 -56.46941324 49.52302652 -50.88916016 42.43554688 C-48.15383372 38.96026279 -45.42235212 35.48195337 -42.69116211 32.00341797 C-40.37885271 29.05898125 -38.06350539 26.11702894 -35.7421875 23.1796875 C-35.27232422 22.58414063 -34.80246094 21.98859375 -34.31835938 21.375 C-30.56914755 16.62352362 -30.56914755 16.62352362 -29.08666992 14.82421875 C-27.42277632 12.65521046 -27.42277632 12.65521046 -25.8762207 9.67578125 C-19.12669214 -1.54886116 -11.87939133 -0.73702984 0 0 Z " fill="#5D1719" transform="translate(270.5625,123.25)"/>
<path d="M0 0 C10.43236791 -0.06991871 20.86467886 -0.12302186 31.29723454 -0.15543652 C36.14298419 -0.1710043 40.98857198 -0.19207743 45.83422852 -0.22631836 C50.52214049 -0.2592323 55.20989807 -0.27691958 59.89791679 -0.28463173 C61.67463036 -0.29011837 63.45133676 -0.30082988 65.22798347 -0.31719017 C84.13298466 -0.48414321 103.60938869 1.26610309 118 15 C126.1189172 23.70647041 127.33547857 32.28563778 127.30078125 43.83984375 C127 47 127 47 125 49 C124.95101562 47.86820313 124.90203125 46.73640625 124.8515625 45.5703125 C124.77653486 44.08851661 124.70098703 42.606747 124.625 41.125 C124.5940625 40.37863281 124.563125 39.63226563 124.53125 38.86328125 C124.44356169 34.46526812 124.44356169 34.46526812 122 31 C121.39286197 29.14516546 120.85868948 27.26578615 120.375 25.375 C120.11460937 24.37210938 119.85421875 23.36921875 119.5859375 22.3359375 C119.39257812 21.56507813 119.19921875 20.79421875 119 20 C117.35 20 115.7 20 114 20 C113.731875 19.071875 113.46375 18.14375 113.1875 17.1875 C111.81926814 13.49109198 111.81926814 13.49109198 109 11 C105.89992799 9.79950593 105.89992799 9.79950593 103 9 C103 9.66 103 10.32 103 11 C101.35 10.67 99.7 10.34 98 10 C98 8.68 98 7.36 98 6 C86.42419091 2.88423588 74.76443203 2.7213738 62.8828125 2.8046875 C61.28856587 2.8084291 59.69431691 2.81127063 58.10006714 2.81326294 C53.95405449 2.8208093 49.80818751 2.84037757 45.66223145 2.8626709 C41.41155974 2.88332607 37.16086394 2.89230622 32.91015625 2.90234375 C24.60670484 2.92363434 16.30337066 2.95765791 8 3 C12.97906259 3.75427297 12.97906259 3.75427297 18 4 C18 4.66 18 5.32 18 6 C17.01 6.33 16.02 6.66 15 7 C15.33 7.99 15.66 8.98 16 10 C16.04166002 12.3329614 16.04166002 14.6670386 16 17 C16 17.99 16 18.98 16 20 C0 2.62131519 0 2.62131519 0 0 Z " fill="#4D0C12" transform="translate(72,124)"/>
<path d="M0 0 C-0.33 1.98 -0.66 3.96 -1 6 C-2.11375 5.79375 -3.2275 5.5875 -4.375 5.375 C-5.57125 5.25125 -6.7675 5.1275 -8 5 C-8.66 5.66 -9.32 6.32 -10 7 C-12.79787386 6.89341433 -15.50168401 6.48224375 -18.2734375 6.09375 C-21.19813713 5.99318726 -22.5521725 6.46865768 -25 8 C-24.34 9.65 -23.68 11.3 -23 13 C-23.66 13 -24.32 13 -25 13 C-24.16666667 15.16666667 -24.16666667 15.16666667 -22 16 C-22.33 16.66 -22.66 17.32 -23 18 C-22.34 18 -21.68 18 -21 18 C-19.64613064 19.65002828 -18.31321858 21.3174387 -17 23 C-16.34 23.33 -15.68 23.66 -15 24 C-15 26.31 -15 28.62 -15 31 C-15.99 31 -16.98 31 -18 31 C-19.83984375 29.0859375 -19.83984375 29.0859375 -21.9375 26.375 C-24.62573565 22.96164815 -27.3225479 19.59499485 -30.1875 16.328125 C-30.72640869 15.71275879 -31.26531738 15.09739258 -31.82055664 14.46337891 C-32.88029451 13.25851311 -33.94444168 12.05750804 -35.01342773 10.86083984 C-35.50270752 10.30090332 -35.9919873 9.7409668 -36.49609375 9.1640625 C-36.93107178 8.67373535 -37.3660498 8.1834082 -37.81420898 7.67822266 C-39.29637677 5.58054479 -40.11940981 3.40346323 -41 1 C-36.23114211 0.85682765 -31.46226186 0.7144331 -26.69335938 0.57275391 C-25.07160823 0.52446435 -23.44986335 0.47596364 -21.828125 0.42724609 C-19.49480792 0.35718939 -17.16146921 0.28789635 -14.828125 0.21875 C-14.10506165 0.19687622 -13.38199829 0.17500244 -12.63702393 0.15246582 C-8.42271284 0.02846046 -4.21597747 0 0 0 Z " fill="#991D21" transform="translate(159,177)"/>
<path d="M0 0 C2.875 -0.1875 2.875 -0.1875 6 0 C8 3 8 3 7.625 5.1875 C7.41875 5.785625 7.2125 6.38375 7 7 C9.31 7.66 11.62 8.32 14 9 C14.38218767 10.65614657 14.71395102 12.32457024 15 14 C14.67 14.33 14.34 14.66 14 15 C16.64 15.33 19.28 15.66 22 16 C22 17.32 22 18.64 22 20 C22.66 21.65 23.32 23.3 24 25 C32.58 25 41.16 25 50 25 C49.01 24.34 48.02 23.68 47 23 C46.855625 22.21625 46.71125 21.4325 46.5625 20.625 C45.61619024 16.2088878 42.62574457 14.41716304 39 12 C39.33 10.68 39.66 9.36 40 8 C44.35228994 12.23323034 48.47322424 16.59021523 52.421875 21.203125 C53.96801194 23.01968133 53.96801194 23.01968133 55.703125 24.609375 C57 26 57 26 57 28 C51.87740398 28.22376932 46.75769346 28.38636568 41.63134766 28.49438477 C39.89093442 28.53943721 38.15085792 28.60070419 36.41162109 28.67895508 C22.00042199 29.31073544 22.00042199 29.31073544 17.1965332 26.16308594 C15.15818714 23.8822787 13.57456571 21.61694884 12 19 C11.13781452 17.92432533 10.25876462 16.86170405 9.35546875 15.8203125 C8.64003906 14.93085938 7.92460937 14.04140625 7.1875 13.125 C4.37123291 9.59558922 4.37123291 9.59558922 1.25 6.34765625 C0 5 0 5 -0.1875 2.3125 C-0.125625 1.549375 -0.06375 0.78625 0 0 Z M50 22 C51 24 51 24 51 24 Z " fill="#EB1921" transform="translate(145,208)"/>
<path d="M0 0 C0.66 0 1.32 0 2 0 C7 5.47619048 7 5.47619048 7 8 C7.80322189 7.99333817 8.60644379 7.98667633 9.43400574 7.97981262 C17.0112443 7.91965003 24.58836672 7.87399956 32.16578197 7.84456348 C36.06122736 7.82892122 39.95647503 7.80770959 43.85180664 7.77368164 C47.61248525 7.74103632 51.37297394 7.72313615 55.13378334 7.71536827 C56.56709087 7.709834 58.00038826 7.69902679 59.43361473 7.68280983 C61.44416503 7.66096945 63.45490728 7.65977403 65.46557617 7.65942383 C66.60919113 7.65276199 67.75280609 7.64610016 68.93107605 7.63923645 C72.40377812 8.04746564 74.30651754 8.77382667 77 11 C77 12.32 77 13.64 77 15 C78.92022703 16.77409808 78.92022703 16.77409808 81 18 C79.35 18.66 77.7 19.32 76 20 C75.9071875 21.546875 75.9071875 21.546875 75.8125 23.125 C74.78845462 28.00890873 73.53920596 29.54123054 70 33 C67.1875 34.375 67.1875 34.375 65 35 C66 32 66 32 68.4375 30.5625 C71.27977772 28.82940383 71.83789623 28.03558882 73 25 C73.21452941 21.87557166 72.86311687 19.00984344 72 16 C69.21903086 12.99354687 66.95527375 11.74595866 63 11 C61.17332913 10.93031506 59.34422487 10.91552106 57.51635742 10.9375 C56.41809128 10.946604 55.31982513 10.95570801 54.1882782 10.96508789 C53.00595108 10.97660889 51.82362396 10.98812988 50.60546875 11 C48.09830722 11.0011583 45.59114347 10.99977691 43.08398438 10.99609375 C39.13314325 10.99167254 35.18467123 11.00003669 31.23413086 11.05126953 C27.41922307 11.09655175 23.60800649 11.08460551 19.79296875 11.0625 C18.61671432 11.09021484 17.4404599 11.11792969 16.2285614 11.14648438 C8.18517131 11.0294827 8.18517131 11.0294827 4.65200806 7.96044922 C0 2.08609693 0 2.08609693 0 0 Z " fill="#63171F" transform="translate(89,144)"/>
<path d="M0 0 C2.475 0.495 2.475 0.495 5 1 C5.33 1.99 5.66 2.98 6 4 C5.38125 4.226875 4.7625 4.45375 4.125 4.6875 C1.77422698 5.82895123 1.77422698 5.82895123 1.17578125 8.40625 C-0.31777576 11.701007 -1.69711243 12.31364231 -4.9375 13.8125 C-5.81277344 14.23144531 -6.68804687 14.65039062 -7.58984375 15.08203125 C-10 16 -10 16 -13 16 C-8.80898673 21.46815636 -4.52923792 26.80794678 0 32 C-3.28976808 33.09658936 -4.71303767 32.79953138 -8 32 C-8.33 29.69 -8.66 27.38 -9 25 C-10.98 25 -12.96 25 -15 25 C-16.00109515 21.68929162 -16.10356134 18.69915231 -16.0625 15.25 C-16.05347656 14.26515625 -16.04445312 13.2803125 -16.03515625 12.265625 C-16.02355469 11.51796875 -16.01195312 10.7703125 -16 10 C-14 9 -14 9 -10.8125 8.9375 C-5.41654306 7.61062534 -3.24194076 4.32587232 0 0 Z " fill="#A21C24" transform="translate(184,183)"/>
<path d="M0 0 C11.88 0 23.76 0 36 0 C31.5 7.875 31.5 7.875 29.421875 10.30859375 C28.76445312 11.08686523 28.76445312 11.08686523 28.09375 11.88085938 C27.6503125 12.39455078 27.206875 12.90824219 26.75 13.4375 C26.29109375 13.97826172 25.8321875 14.51902344 25.359375 15.07617188 C24.24458124 16.38837703 23.12301139 17.69482073 22 19 C21.34 18.34 20.68 17.68 20 17 C20.825 16.278125 21.65 15.55625 22.5 14.8125 C25.24407806 12.27082634 25.24407806 12.27082634 25.3125 9.1875 C25.209375 8.465625 25.10625 7.74375 25 7 C24.01 7.495 24.01 7.495 23 8 C22.34 6.35 21.68 4.7 21 3 C17.72924117 2.9419524 14.45861476 2.90638835 11.1875 2.875 C9.7943457 2.84986328 9.7943457 2.84986328 8.37304688 2.82421875 C7.48037109 2.81777344 6.58769531 2.81132813 5.66796875 2.8046875 C4.84578857 2.79421387 4.0236084 2.78374023 3.17651367 2.77294922 C0.70578408 2.86003865 0.70578408 2.86003865 -2 5 C-1.34 3.35 -0.68 1.7 0 0 Z " fill="#511215" transform="translate(252,124)"/>
<path d="M0 0 C9.89153267 4.39848891 18.33412696 9.87252363 23 20 C24.73219361 25.05727854 25.27128213 29.47600535 25.25 34.8125 C25.25515625 36.11832031 25.2603125 37.42414063 25.265625 38.76953125 C25 42 25 42 23 44 C22.92652344 42.30230469 22.92652344 42.30230469 22.8515625 40.5703125 C22.77653486 39.08851661 22.70098703 37.606747 22.625 36.125 C22.5940625 35.37863281 22.563125 34.63226563 22.53125 33.86328125 C22.44356169 29.46526812 22.44356169 29.46526812 20 26 C19.39286197 24.14516546 18.85868948 22.26578615 18.375 20.375 C18.11460937 19.37210938 17.85421875 18.36921875 17.5859375 17.3359375 C17.29589844 16.17964844 17.29589844 16.17964844 17 15 C15.35 15 13.7 15 12 15 C11.731875 14.071875 11.46375 13.14375 11.1875 12.1875 C9.81926814 8.49109198 9.81926814 8.49109198 7 6 C3.89992799 4.79950593 3.89992799 4.79950593 1 4 C1 4.66 1 5.32 1 6 C-0.65 5.67 -2.3 5.34 -4 5 C-4 3.68 -4 2.36 -4 1 C-2.68 1.33 -1.36 1.66 0 2 C0 1.34 0 0.68 0 0 Z " fill="#4B1116" transform="translate(174,129)"/>
<path d="M0 0 C6.90706911 5.58443886 14.13946564 11.87627916 18 20 C12.87740398 20.22376932 7.75769346 20.38636568 2.63134766 20.49438477 C0.89093442 20.53943721 -0.84914208 20.60070419 -2.58837891 20.67895508 C-17.08763235 21.3145957 -17.08763235 21.3145957 -21.97265625 17.95654297 C-23.95465282 15.72679683 -25.554368 13.60389897 -27 11 C-26.34 10.67 -25.68 10.34 -25 10 C-23.12382425 11.78236696 -21.7460713 13.39159063 -20.32519531 15.58276367 C-18.17403814 18.29391981 -18.17403814 18.29391981 -14.79199219 18.56762695 C-12.93815918 18.52835083 -12.93815918 18.52835083 -11.046875 18.48828125 C-10.38665344 18.48120651 -9.72643188 18.47413177 -9.04620361 18.46684265 C-6.94629508 18.43894727 -4.84909621 18.37623287 -2.75 18.3125 C-1.3229553 18.28741017 0.10413138 18.26459817 1.53125 18.24414062 C5.02170748 18.1891412 8.51058911 18.10290912 12 18 C11.3503125 17.55527344 10.700625 17.11054688 10.03125 16.65234375 C7.43582784 14.54106765 7.62524668 13.20438926 7 10 C4.82902767 7.46719894 2.78712094 5.85808063 0 4 C0 2.68 0 1.36 0 0 Z M11 14 C12 16 12 16 12 16 Z " fill="#CD2028" transform="translate(184,216)"/>
<path d="M0 0 C0 0.66 0 1.32 0 2 C-3.13850064 2.92553743 -5.93680778 3.11664647 -9.203125 3.09765625 C-10.1828125 3.09443359 -11.1625 3.09121094 -12.171875 3.08789062 C-13.18765625 3.07951172 -14.2034375 3.07113281 -15.25 3.0625 C-16.796875 3.05573242 -16.796875 3.05573242 -18.375 3.04882812 C-20.91672573 3.03706088 -23.45833319 3.02062011 -26 3 C-26 3.99 -26 4.98 -26 6 C-26.66 6 -27.32 6 -28 6 C-27.67 6.99 -27.34 7.98 -27 9 C-27.99 10.485 -27.99 10.485 -29 12 C-31.31 9.03 -33.62 6.06 -36 3 C-35.67 2.34 -35.34 1.68 -35 1 C-30.33692578 0.85719857 -25.67383973 0.7147919 -21.01074219 0.57275391 C-19.42382479 0.5243604 -17.83691071 0.47585828 -16.25 0.42724609 C-13.97136275 0.35746283 -11.69271395 0.28806785 -9.4140625 0.21875 C-8.70255035 0.19687622 -7.99103821 0.17500244 -7.25796509 0.15246582 C-2.22774341 0 -2.22774341 0 0 0 Z " fill="#8A1C23" transform="translate(154,177)"/>
<path d="M0 0 C0.495 0.144375 0.99 0.28875 1.5 0.4375 C5.9434879 1.43728478 10.44157002 2 15 2 C15 2.66 15 3.32 15 4 C14.01 4.33 13.02 4.66 12 5 C12.33 5.99 12.66 6.98 13 8 C13.04166002 10.3329614 13.04166002 12.6670386 13 15 C13 15.99 13 16.98 13 18 C11.58155991 16.43910974 10.16532975 14.8762111 8.75 13.3125 C7.96109375 12.44238281 7.1721875 11.57226562 6.359375 10.67578125 C0 3.46357616 0 3.46357616 0 0 Z " fill="#4A0F12" transform="translate(75,126)"/>
<path d="M0 0 C0.78375 0.474375 1.5675 0.94875 2.375 1.4375 C3.88948678 2.33898023 5.4235897 3.21179485 7 4 C6.67 4.66 6.34 5.32 6 6 C6.66 6 7.32 6 8 6 C9.35386936 7.65002828 10.68678142 9.3174387 12 11 C12.66 11.33 13.32 11.66 14 12 C14 14.31 14 16.62 14 19 C13.01 19 12.02 19 11 19 C6.76288066 14.75130383 0 6.17549507 0 0 Z " fill="#AF1E24" transform="translate(130,189)"/>
<path d="M0 0 C2.0625 0.4375 2.0625 0.4375 4 1 C4.12375 2.1446875 4.12375 2.1446875 4.25 3.3125 C5.14615794 6.52373261 6.21611025 7.29374499 9 9 C7.35 9.66 5.7 10.32 4 11 C3.938125 12.03125 3.87625 13.0625 3.8125 14.125 C2.78845462 19.00890873 1.53920596 20.54123054 -2 24 C-4.8125 25.375 -4.8125 25.375 -7 26 C-6 23 -6 23 -3.5625 21.5625 C-0.68345433 19.80698434 -0.15830845 19.08882254 1 16 C1.31579624 13.05365795 1.31579624 13.05365795 1.25 9.9375 C1.25515625 8.89464844 1.2603125 7.85179687 1.265625 6.77734375 C1.20072577 3.78871015 1.20072577 3.78871015 -1 1 C-0.67 0.67 -0.34 0.34 0 0 Z " fill="#721A1E" transform="translate(161,153)"/>
<path d="M0 0 C1.12109451 1.12109451 2.24149739 2.2428853 3.359375 3.3671875 C4.58893063 4.5908881 5.83056971 5.80246773 7.078125 7.0078125 C8.15320313 8.05582031 8.15320313 8.05582031 9.25 9.125 C9.93578125 9.78757813 10.6215625 10.45015625 11.328125 11.1328125 C13 13 13 13 14 16 C8.25 16.125 8.25 16.125 6 15 C5.59270772 12.67843403 5.25561323 10.3431213 5 8 C3.02 8 1.04 8 -1 8 C-1.5534764 5.92446352 -2 4.15634036 -2 2 C-1.34 2 -0.68 2 0 2 C0 1.34 0 0.68 0 0 Z " fill="#AD1D26" transform="translate(170,200)"/>
<path d="M0 0 C0.66 0 1.32 0 2 0 C1.75 2.375 1.75 2.375 1 5 C0.4328125 5.25007812 -0.134375 5.50015625 -0.71875 5.7578125 C-4.08068726 7.58845642 -6.00340301 10.4892988 -8.25 13.5 C-8.70890625 14.09425781 -9.1678125 14.68851563 -9.640625 15.30078125 C-12.17143943 18.31437366 -12.17143943 18.31437366 -13 22 C-13.73605469 22.58265625 -14.47210938 23.1653125 -15.23046875 23.765625 C-18.21357657 26.17230719 -20.11490979 28.62122749 -22.3125 31.75 C-23.00988281 32.73484375 -23.70726562 33.7196875 -24.42578125 34.734375 C-25.20501953 35.85585937 -25.20501953 35.85585937 -26 37 C-26.495 35.515 -26.495 35.515 -27 34 C-25.18298613 31.4745034 -23.33662375 29.16354794 -21.3125 26.8125 C-20.11189568 25.38115635 -18.91405221 23.94749311 -17.71875 22.51171875 C-17.10257813 21.77228027 -16.48640625 21.0328418 -15.8515625 20.27099609 C-12.34971446 15.97587604 -9.07393966 11.51232907 -5.78442383 7.05395508 C-2.176054 2.176054 -2.176054 2.176054 0 0 Z " fill="#461013" transform="translate(211,177)"/>
<path d="M0 0 C1.890625 0.2734375 1.890625 0.2734375 4 1 C8.4170252 7.4936863 7.71105057 17.52935176 7 25 C6.34 25.66 5.68 26.32 5 27 C4.92652344 25.30230469 4.92652344 25.30230469 4.8515625 23.5703125 C4.77653486 22.08851661 4.70098703 20.606747 4.625 19.125 C4.5940625 18.37863281 4.563125 17.63226563 4.53125 16.86328125 C4.44356169 12.46526812 4.44356169 12.46526812 2 9 C1.3671875 6.8359375 1.3671875 6.8359375 0.875 4.375 C0.70742187 3.55773437 0.53984375 2.74046875 0.3671875 1.8984375 C0.24601563 1.27195313 0.12484375 0.64546875 0 0 Z " fill="#64181F" transform="translate(192,146)"/>
<path d="M0 0 C2.875 -0.1875 2.875 -0.1875 6 0 C6.66 0.99 7.32 1.98 8 3 C7.773125 3.928125 7.54625 4.85625 7.3125 5.8125 C6.69158238 8.87660847 6.69158238 8.87660847 8.0390625 10.72265625 C9.29442313 12.20594549 10.64259426 13.60948681 12 15 C11.67 15.66 11.34 16.32 11 17 C9.15073229 15.11770965 7.32153909 13.22131185 5.5 11.3125 C4.71302734 10.51682617 4.71302734 10.51682617 3.91015625 9.70507812 C1.52260946 7.17799938 0.07338922 5.6179706 -0.34375 2.10546875 C-0.2303125 1.41066406 -0.116875 0.71585938 0 0 Z " fill="#BD1D26" transform="translate(145,208)"/>
<path d="M0 0 C10.06469574 -0.6394042 20.73146082 0.93949712 30 5 C30 5.66 30 6.32 30 7 C23.53213368 6.23907455 23.53213368 6.23907455 20.84375 5.03125 C16.85471947 3.58467849 12.89364079 3.28001119 8.6875 2.875 C7.85154297 2.78863281 7.01558594 2.70226562 6.15429688 2.61328125 C4.1035237 2.40234458 2.05184097 2.20028354 0 2 C0 1.34 0 0.68 0 0 Z " fill="#4B1014" transform="translate(144,124)"/>
<path d="M0 0 C0.94875 0.350625 1.8975 0.70125 2.875 1.0625 C3.25718767 2.71864657 3.58895102 4.38707024 3.875 6.0625 C3.545 6.3925 3.215 6.7225 2.875 7.0625 C4.855 7.7225 6.835 8.3825 8.875 9.0625 C7.885 9.5575 7.885 9.5575 6.875 10.0625 C6.545 10.7225 6.215 11.3825 5.875 12.0625 C3.4375 11.375 3.4375 11.375 0.875 10.0625 C0.0625 7.4375 0.0625 7.4375 -0.125 5.0625 C-1.115 4.7325 -2.105 4.4025 -3.125 4.0625 C-4.3125 2 -4.3125 2 -5.125 0.0625 C-3.125 -0.9375 -3.125 -0.9375 0 0 Z " fill="#DD1C24" transform="translate(156.125,215.9375)"/>
<path d="M0 0 C0.495 0.144375 0.99 0.28875 1.5 0.4375 C5.9434879 1.43728478 10.44157002 2 15 2 C15 2.66 15 3.32 15 4 C13.68 4 12.36 4 11 4 C10.67 4.99 10.34 5.98 10 7 C9.01 6.67 8.02 6.34 7 6 C6.67 6.66 6.34 7.32 6 8 C2 3.25 2 3.25 2 1 C1.34 0.67 0.68 0.34 0 0 Z " fill="#60181B" transform="translate(75,126)"/>
<path d="M0 0 C0.33 0.66 0.66 1.32 1 2 C-0.61712428 4.33916131 -2.24305362 6.67121701 -3.875 9 C-4.33519531 9.66773438 -4.79539063 10.33546875 -5.26953125 11.0234375 C-6.46305946 12.71859351 -7.72690339 14.3637578 -9 16 C-9.66 16 -10.32 16 -11 16 C-10.505 15.1028125 -10.505 15.1028125 -10 14.1875 C-8.79212012 11.94613529 -8.79212012 11.94613529 -9 9 C-9 8.34 -9 7.68 -9 7 C-7.88625 6.6596875 -7.88625 6.6596875 -6.75 6.3125 C-3.48860409 4.75592468 -2.07105025 2.91481146 0 0 Z " fill="#4A0F13" transform="translate(226,203)"/>
<path d="M0 0 C0.66 0 1.32 0 2 0 C2 0.66 2 1.32 2 2 C2.99 2.33 3.98 2.66 5 3 C5 3.66 5 4.32 5 5 C5.66 5 6.32 5 7 5 C7.99 6.485 7.99 6.485 9 8 C11.56282742 8.72965366 11.56282742 8.72965366 14 9 C13.67 10.65 13.34 12.3 13 14 C11 14 11 14 9.4140625 12.42578125 C8.82367188 11.72839844 8.23328125 11.03101563 7.625 10.3125 C6.69880859 9.22195312 6.69880859 9.22195312 5.75390625 8.109375 C0 1.18930958 0 1.18930958 0 0 Z " fill="#6F1111" transform="translate(191,222)"/>
<path d="M0 0 C0.33 0.99 0.66 1.98 1 3 C-0.57871821 5.20430375 -2.14761637 7.16942403 -3.9375 9.1875 C-4.41896484 9.74630859 -4.90042969 10.30511719 -5.39648438 10.88085938 C-6.58857598 12.26179717 -7.79314375 13.63194679 -9 15 C-10 12 -10 12 -9.25 9.875 C-8 8 -8 8 -5 7 C-4.31867549 5.33927151 -3.65257873 3.672233 -3 2 C-2.01 1.34 -1.02 0.68 0 0 Z " fill="#4A0F14" transform="translate(238,187)"/>
<path d="M0 0 C1.134375 0.020625 2.26875 0.04125 3.4375 0.0625 C2.8125 2.4375 2.8125 2.4375 1.4375 5.0625 C-1.6875 6.375 -1.6875 6.375 -4.5625 7.0625 C-4.60504356 5.06295254 -4.60330783 3.06208364 -4.5625 1.0625 C-3.5625 0.0625 -3.5625 0.0625 0 0 Z " fill="#B21F24" transform="translate(172.5625,191.9375)"/>
<path d="M0 0 C0.66 0.33 1.32 0.66 2 1 C0.63016497 4.16115776 0.0109362 4.9927092 -3 7 C-3.309375 7.66 -3.61875 8.32 -3.9375 9 C-5.24187242 11.45528927 -6.46627297 11.98650919 -9 13 C-7.47987323 7.59510481 -3.72614782 4.01507372 0 0 Z " fill="#4B1216" transform="translate(248,130)"/>
<path d="M0 0 C0.66 0.33 1.32 0.66 2 1 C1.67 1.66 1.34 2.32 1 3 C0.34 3 -0.32 3 -1 3 C-1.28875 3.7425 -1.5775 4.485 -1.875 5.25 C-2.82302644 7.56739797 -3.84845911 9.77917115 -5 12 C-5.99 12 -6.98 12 -8 12 C-8.33 12.66 -8.66 13.32 -9 14 C-8.41827275 10.0479482 -6.44842259 7.77904947 -3.9375 4.75 C-3.20402344 3.85796875 -2.47054687 2.9659375 -1.71484375 2.046875 C-1.14894531 1.37140625 -0.58304688 0.6959375 0 0 Z " fill="#4E1318" transform="translate(229,154)"/>
<path d="M0 0 C1.31611677 0.95336021 2.62778961 1.91285774 3.9375 2.875 C4.66839844 3.40867188 5.39929688 3.94234375 6.15234375 4.4921875 C8 6 8 6 9 8 C8.01 9.485 8.01 9.485 7 11 C5.82750647 9.54634731 4.66216184 8.08692581 3.5 6.625 C2.52546875 5.40683594 2.52546875 5.40683594 1.53125 4.1640625 C0 2 0 2 0 0 Z " fill="#821B27" transform="translate(118,178)"/>
<path d="M0 0 C0.99 0.66 1.98 1.32 3 2 C3 2.66 3 3.32 3 4 C2.34 4 1.68 4 1 4 C1 4.66 1 5.32 1 6 C-0.65 5.67 -2.3 5.34 -4 5 C-4 3.68 -4 2.36 -4 1 C-2.68 1.33 -1.36 1.66 0 2 C0 1.34 0 0.68 0 0 Z " fill="#5A1B1E" transform="translate(174,129)"/>
<path d="M0 0 C1.32 0.66 2.64 1.32 4 2 C4 4.66666667 4 7.33333333 4 10 C-0.60921053 4.64736842 -0.60921053 4.64736842 -1 1 C-0.67 0.67 -0.34 0.34 0 0 Z " fill="#56131A" transform="translate(84,134)"/>
<path d="M0 0 C2.31 1.65 4.62 3.3 7 5 C3.71023192 6.09658936 2.28696233 5.79953138 -1 5 C-0.67 3.35 -0.34 1.7 0 0 Z " fill="#CD1E26" transform="translate(177,210)"/>
<path d="M0 0 C1.32 0.66 2.64 1.32 4 2 C4 3.98 4 5.96 4 8 C2.0625 7.1875 2.0625 7.1875 0 6 C-1 3 -1 3 0 0 Z " fill="#67181D" transform="translate(92,141)"/>
<path d="M0 0 C2.31 0 4.62 0 7 0 C4.25 4.875 4.25 4.875 2 6 C1.855625 5.38125 1.71125 4.7625 1.5625 4.125 C1.06847775 1.96741678 1.06847775 1.96741678 0 0 Z " fill="#470E13" transform="translate(281,124)"/>
<path d="M0 0 C0.66 0 1.32 0 2 0 C3.7143618 1.95927063 5.38405168 3.95880212 7 6 C5.35 6.33 3.7 6.66 2 7 C1.34 4.69 0.68 2.38 0 0 Z " fill="#5D161B" transform="translate(184,137)"/>
<path d="M0 0 C1.98 1.65 3.96 3.3 6 5 C5.01 5.33 4.02 5.66 3 6 C2.01 5.34 1.02 4.68 0 4 C0 2.68 0 1.36 0 0 Z " fill="#C52129" transform="translate(184,216)"/>
</svg>
